# Blender v3.2.2 OBJ File: 'cone.blend'
# www.blender.org
mtllib cone.mtl
o Cone_Cone.001
v 0.000000 -0.152400 -0.083312
v 0.000000 0.152400 -0.012700
v 0.016253 -0.152400 -0.081711
v 0.002478 0.152400 -0.012456
v 0.031882 -0.152400 -0.076970
v 0.004860 0.152400 -0.011733
v 0.046286 -0.152400 -0.069271
v 0.007056 0.152400 -0.010560
v 0.058910 -0.152400 -0.058910
v 0.008980 0.152400 -0.008980
v 0.069271 -0.152400 -0.046286
v 0.010560 0.152400 -0.007056
v 0.076970 -0.152400 -0.031882
v 0.011733 0.152400 -0.004860
v 0.081711 -0.152400 -0.016253
v 0.012456 0.152400 -0.002478
v 0.083312 -0.152400 0.000000
v 0.012700 0.152400 0.000000
v 0.081711 -0.152400 0.016253
v 0.012456 0.152400 0.002478
v 0.076970 -0.152400 0.031882
v 0.011733 0.152400 0.004860
v 0.069271 -0.152400 0.046286
v 0.010560 0.152400 0.007056
v 0.058910 -0.152400 0.058910
v 0.008980 0.152400 0.008980
v 0.046286 -0.152400 0.069271
v 0.007056 0.152400 0.010560
v 0.031882 -0.152400 0.076970
v 0.004860 0.152400 0.011733
v 0.016253 -0.152400 0.081711
v 0.002478 0.152400 0.012456
v -0.000000 -0.152400 0.083312
v -0.000000 0.152400 0.012700
v -0.016253 -0.152400 0.081711
v -0.002478 0.152400 0.012456
v -0.031882 -0.152400 0.076970
v -0.004860 0.152400 0.011733
v -0.046286 -0.152400 0.069271
v -0.007056 0.152400 0.010560
v -0.058910 -0.152400 0.058910
v -0.008980 0.152400 0.008980
v -0.069271 -0.152400 0.046286
v -0.010560 0.152400 0.007056
v -0.076970 -0.152400 0.031882
v -0.011733 0.152400 0.004860
v -0.081711 -0.152400 0.016253
v -0.012456 0.152400 0.002478
v -0.083312 -0.152400 -0.000000
v -0.012700 0.152400 -0.000000
v -0.081711 -0.152400 -0.016253
v -0.012456 0.152400 -0.002478
v -0.076970 -0.152400 -0.031882
v -0.011733 0.152400 -0.004860
v -0.069271 -0.152400 -0.046286
v -0.010560 0.152400 -0.007056
v -0.058910 -0.152400 -0.058910
v -0.008980 0.152400 -0.008980
v -0.046286 -0.152400 -0.069271
v -0.007056 0.152400 -0.010560
v -0.031882 -0.152400 -0.076970
v -0.004860 0.152400 -0.011733
v -0.016253 -0.152400 -0.081711
v -0.002478 0.152400 -0.012456
v -0.000000 0.155348 0.000000
vt 1.000000 0.500000
vt 1.000000 1.000000
vt 0.968750 1.000000
vt 0.968750 0.500000
vt 0.937500 1.000000
vt 0.937500 0.500000
vt 0.906250 1.000000
vt 0.906250 0.500000
vt 0.875000 1.000000
vt 0.875000 0.500000
vt 0.843750 1.000000
vt 0.843750 0.500000
vt 0.812500 1.000000
vt 0.812500 0.500000
vt 0.781250 1.000000
vt 0.781250 0.500000
vt 0.750000 1.000000
vt 0.750000 0.500000
vt 0.718750 1.000000
vt 0.718750 0.500000
vt 0.687500 1.000000
vt 0.687500 0.500000
vt 0.656250 1.000000
vt 0.656250 0.500000
vt 0.625000 1.000000
vt 0.625000 0.500000
vt 0.593750 1.000000
vt 0.593750 0.500000
vt 0.562500 1.000000
vt 0.562500 0.500000
vt 0.531250 1.000000
vt 0.531250 0.500000
vt 0.500000 1.000000
vt 0.500000 0.500000
vt 0.468750 1.000000
vt 0.468750 0.500000
vt 0.437500 1.000000
vt 0.437500 0.500000
vt 0.406250 1.000000
vt 0.406250 0.500000
vt 0.375000 1.000000
vt 0.375000 0.500000
vt 0.343750 1.000000
vt 0.343750 0.500000
vt 0.312500 1.000000
vt 0.312500 0.500000
vt 0.281250 1.000000
vt 0.281250 0.500000
vt 0.250000 1.000000
vt 0.250000 0.500000
vt 0.218750 1.000000
vt 0.218750 0.500000
vt 0.187500 1.000000
vt 0.187500 0.500000
vt 0.156250 1.000000
vt 0.156250 0.500000
vt 0.125000 1.000000
vt 0.125000 0.500000
vt 0.093750 1.000000
vt 0.093750 0.500000
vt 0.062500 1.000000
vt 0.062500 0.500000
vt 0.296822 0.485388
vt 0.250000 0.490000
vt 0.203178 0.485388
vt 0.158156 0.471731
vt 0.116663 0.449553
vt 0.080294 0.419706
vt 0.050447 0.383337
vt 0.028269 0.341844
vt 0.014612 0.296822
vt 0.010000 0.250000
vt 0.014612 0.203178
vt 0.028269 0.158156
vt 0.050447 0.116663
vt 0.080294 0.080294
vt 0.116663 0.050447
vt 0.158156 0.028269
vt 0.203178 0.014612
vt 0.250000 0.010000
vt 0.296822 0.014612
vt 0.341844 0.028269
vt 0.383337 0.050447
vt 0.419706 0.080294
vt 0.449553 0.116663
vt 0.471731 0.158156
vt 0.485388 0.203178
vt 0.490000 0.250000
vt 0.485388 0.296822
vt 0.471731 0.341844
vt 0.449553 0.383337
vt 0.419706 0.419706
vt 0.383337 0.449553
vt 0.341844 0.471731
vt 0.031250 1.000000
vt 0.031250 0.500000
vt 0.000000 1.000000
vt 0.000000 0.500000
vt 0.750000 0.490000
vt 0.796822 0.485388
vt 0.750000 0.250000
vt 0.841844 0.471731
vt 0.883337 0.449553
vt 0.919706 0.419706
vt 0.949553 0.383337
vt 0.971731 0.341844
vt 0.985388 0.296822
vt 0.990000 0.250000
vt 0.985388 0.203178
vt 0.971731 0.158156
vt 0.949553 0.116663
vt 0.919706 0.080294
vt 0.883337 0.050447
vt 0.841844 0.028269
vt 0.796822 0.014612
vt 0.750000 0.010000
vt 0.703178 0.014612
vt 0.658156 0.028269
vt 0.616663 0.050447
vt 0.580294 0.080294
vt 0.550447 0.116663
vt 0.528269 0.158156
vt 0.514612 0.203178
vt 0.510000 0.250000
vt 0.514612 0.296822
vt 0.528269 0.341844
vt 0.550447 0.383337
vt 0.580294 0.419706
vt 0.616663 0.449553
vt 0.658156 0.471731
vt 0.703178 0.485388
vn 0.0955 0.2247 -0.9697
vn 0.2829 0.2247 -0.9325
vn 0.4593 0.2247 -0.8594
vn 0.6182 0.2247 -0.7533
vn 0.7533 0.2247 -0.6182
vn 0.8594 0.2247 -0.4593
vn 0.9325 0.2247 -0.2829
vn 0.9697 0.2247 -0.0955
vn 0.9697 0.2247 0.0955
vn 0.9325 0.2247 0.2829
vn 0.8594 0.2247 0.4593
vn 0.7533 0.2247 0.6182
vn 0.6182 0.2247 0.7533
vn 0.4593 0.2247 0.8594
vn 0.2829 0.2247 0.9325
vn 0.0955 0.2247 0.9697
vn -0.0955 0.2247 0.9697
vn -0.2829 0.2247 0.9325
vn -0.4593 0.2247 0.8594
vn -0.6182 0.2247 0.7533
vn -0.7533 0.2247 0.6182
vn -0.8594 0.2247 0.4593
vn -0.9325 0.2247 0.2829
vn -0.9697 0.2247 0.0955
vn -0.9697 0.2247 -0.0955
vn -0.9325 0.2247 -0.2829
vn -0.8594 0.2247 -0.4593
vn -0.7533 0.2247 -0.6182
vn -0.6182 0.2247 -0.7533
vn -0.4593 0.2247 -0.8594
vn 0.0000 1.0000 -0.0000
vn -0.2829 0.2247 -0.9325
vn -0.0955 0.2247 -0.9697
vn -0.0946 -0.2601 0.9609
vn -0.2803 -0.2601 0.9240
vn -0.4552 -0.2601 0.8516
vn -0.6126 -0.2601 0.7464
vn -0.7464 -0.2601 0.6126
vn -0.8516 -0.2601 0.4552
vn -0.9240 -0.2601 0.2803
vn -0.9609 -0.2601 0.0946
vn -0.9609 -0.2601 -0.0946
vn -0.9240 -0.2601 -0.2803
vn -0.8516 -0.2601 -0.4552
vn -0.7464 -0.2601 -0.6126
vn -0.6126 -0.2601 -0.7464
vn -0.4552 -0.2601 -0.8516
vn -0.2803 -0.2601 -0.9240
vn -0.0946 -0.2601 -0.9609
vn 0.0946 -0.2601 -0.9609
vn 0.2803 -0.2601 -0.9240
vn 0.4552 -0.2601 -0.8516
vn 0.6126 -0.2601 -0.7464
vn 0.7464 -0.2601 -0.6126
vn 0.8516 -0.2601 -0.4552
vn 0.9240 -0.2601 -0.2803
vn 0.9609 -0.2601 -0.0946
vn 0.9609 -0.2601 0.0946
vn 0.9240 -0.2601 0.2803
vn 0.8516 -0.2601 0.4552
vn 0.7464 -0.2601 0.6126
vn 0.6126 -0.2601 0.7464
vn 0.4552 -0.2601 0.8516
vn 0.2803 -0.2601 0.9240
vn 0.0946 -0.2601 0.9609
usemtl None
s off
f 1/1/1 2/2/1 4/3/1 3/4/1
f 3/4/2 4/3/2 6/5/2 5/6/2
f 5/6/3 6/5/3 8/7/3 7/8/3
f 7/8/4 8/7/4 10/9/4 9/10/4
f 9/10/5 10/9/5 12/11/5 11/12/5
f 11/12/6 12/11/6 14/13/6 13/14/6
f 13/14/7 14/13/7 16/15/7 15/16/7
f 15/16/8 16/15/8 18/17/8 17/18/8
f 17/18/9 18/17/9 20/19/9 19/20/9
f 19/20/10 20/19/10 22/21/10 21/22/10
f 21/22/11 22/21/11 24/23/11 23/24/11
f 23/24/12 24/23/12 26/25/12 25/26/12
f 25/26/13 26/25/13 28/27/13 27/28/13
f 27/28/14 28/27/14 30/29/14 29/30/14
f 29/30/15 30/29/15 32/31/15 31/32/15
f 31/32/16 32/31/16 34/33/16 33/34/16
f 33/34/17 34/33/17 36/35/17 35/36/17
f 35/36/18 36/35/18 38/37/18 37/38/18
f 37/38/19 38/37/19 40/39/19 39/40/19
f 39/40/20 40/39/20 42/41/20 41/42/20
f 41/42/21 42/41/21 44/43/21 43/44/21
f 43/44/22 44/43/22 46/45/22 45/46/22
f 45/46/23 46/45/23 48/47/23 47/48/23
f 47/48/24 48/47/24 50/49/24 49/50/24
f 49/50/25 50/49/25 52/51/25 51/52/25
f 51/52/26 52/51/26 54/53/26 53/54/26
f 53/54/27 54/53/27 56/55/27 55/56/27
f 55/56/28 56/55/28 58/57/28 57/58/28
f 57/58/29 58/57/29 60/59/29 59/60/29
f 59/60/30 60/59/30 62/61/30 61/62/30
f 4/63/31 2/64/31 64/65/31 62/66/31 60/67/31 58/68/31 56/69/31 54/70/31 52/71/31 50/72/31 48/73/31 46/74/31 44/75/31 42/76/31 40/77/31 38/78/31 36/79/31 34/80/31 32/81/31 30/82/31 28/83/31 26/84/31 24/85/31 22/86/31 20/87/31 18/88/31 16/89/31 14/90/31 12/91/31 10/92/31 8/93/31 6/94/31
f 61/62/32 62/61/32 64/95/32 63/96/32
f 63/96/33 64/95/33 2/97/33 1/98/33
f 1/99/34 3/100/34 65/101/34
f 3/100/35 5/102/35 65/101/35
f 5/102/36 7/103/36 65/101/36
f 7/103/37 9/104/37 65/101/37
f 9/104/38 11/105/38 65/101/38
f 11/105/39 13/106/39 65/101/39
f 13/106/40 15/107/40 65/101/40
f 15/107/41 17/108/41 65/101/41
f 17/108/42 19/109/42 65/101/42
f 19/109/43 21/110/43 65/101/43
f 21/110/44 23/111/44 65/101/44
f 23/111/45 25/112/45 65/101/45
f 25/112/46 27/113/46 65/101/46
f 27/113/47 29/114/47 65/101/47
f 29/114/48 31/115/48 65/101/48
f 31/115/49 33/116/49 65/101/49
f 33/116/50 35/117/50 65/101/50
f 35/117/51 37/118/51 65/101/51
f 37/118/52 39/119/52 65/101/52
f 39/119/53 41/120/53 65/101/53
f 41/120/54 43/121/54 65/101/54
f 43/121/55 45/122/55 65/101/55
f 45/122/56 47/123/56 65/101/56
f 47/123/57 49/124/57 65/101/57
f 49/124/58 51/125/58 65/101/58
f 51/125/59 53/126/59 65/101/59
f 53/126/60 55/127/60 65/101/60
f 55/127/61 57/128/61 65/101/61
f 57/128/62 59/129/62 65/101/62
f 59/129/63 61/130/63 65/101/63
f 61/130/64 63/131/64 65/101/64
f 63/131/65 1/99/65 65/101/65
